<svg id="layer" xmlns="http://www.w3.org/2000/svg" viewBox="0 0 382 382"><path d="M347.445 0H34.555C15.47 0 0 15.47 0 34.555v312.89C0 366.528 15.47 382 34.555 382h312.89C366.528 382 382 366.53 382 347.444V34.554C382 15.472 366.53 0 347.445 0zM118.207 329.844c0 5.554-4.502 10.056-10.056 10.056H65.346c-5.554 0-10.056-4.502-10.056-10.056v-179.44c0-5.555 4.5-10.057 10.055-10.057h42.806c5.555 0 10.057 4.502 10.057 10.056v179.44zm-31.46-206.412c-22.458 0-40.665-18.207-40.665-40.666S64.29 42.1 86.748 42.1s40.666 18.207 40.666 40.666-18.206 40.666-40.666 40.666zM341.91 330.654c0 5.106-4.14 9.246-9.246 9.246H286.73c-5.106 0-9.246-4.14-9.246-9.246v-84.168c0-12.556 3.683-55.02-32.813-55.02-28.308 0-34.05 29.065-35.203 42.11v97.078c0 5.106-4.14 9.246-9.246 9.246h-44.425c-5.106 0-9.246-4.14-9.246-9.246v-181.06c0-5.107 4.14-9.247 9.245-9.247h44.426c5.107 0 9.247 4.14 9.247 9.246v15.655c10.497-15.753 26.097-27.912 59.312-27.912 73.55 0 73.13 68.716 73.13 106.472v86.846z"/></svg>