<svg width="50" height="44" xmlns="http://www.w3.org/2000/svg" id="logo"><path d="M0 4.24C.4 2.76 1.16 1.66 2.28.94c2.76.6 4.58 2.38 5.46 5.34C9.34 2.72 11.96.94 15.6.94c.96 0 2.02.12 3.18.36 0 2.32-.5 4.28-1.5 5.88-.36-.12-1.18-.22-2.46-.3-2.72 0-4.86 1.52-6.42 4.56V31c-.76.16-1.8.24-3.12.24-1.28 0-2.3-.08-3.06-.24V10.42c0-2.72-.74-4.78-2.22-6.18zM37.39 31.6c-1.84 0-3.68-.42-5.52-1.26v7.98c0 2.08-.38 3.54-1.14 4.38-.76.84-2.1 1.26-4.02 1.26h-3.6l-.42-.42V1.06l.42-.42h2.46c2.28 0 3.98.98 5.1 2.94C32.95 1.3 35.73.16 39.01.16c1.68 0 3.16.38 4.44 1.14 1.28.72 2.36 1.76 3.24 3.12.92 1.36 1.6 3 2.04 4.92.48 1.92.72 4.08.72 6.48 0 2.4-.32 4.58-.96 6.54-.6 1.96-1.44 3.62-2.52 4.98-1.08 1.36-2.36 2.42-3.84 3.18-1.44.72-3.02 1.08-4.74 1.08zM36.25 7.66c-1.68 0-3.14.8-4.38 2.4v13.2c1.52.92 2.82 1.38 3.9 1.38 2.72 0 4.08-3.02 4.08-9.06 0-5.28-1.2-7.92-3.6-7.92z" /></svg>