<svg width="377" height="104" fill="none" xmlns="http://www.w3.org/2000/svg" id="logo"><path d="M3 29.24c.4-1.48 1.16-2.58 2.28-3.3 2.76.6 4.58 2.38 5.46 5.34 1.6-3.56 4.22-5.34 7.86-5.34.96 0 2.02.12 3.18.36 0 2.32-.5 4.28-1.5 5.88-.36-.12-1.18-.22-2.46-.3-2.72 0-4.86 1.52-6.42 4.56V56c-.76.16-1.8.24-3.12.24-1.28 0-2.3-.08-3.06-.24V35.42c0-2.72-.74-4.78-2.22-6.18zm42.277 24.24c-2.2 2.2-5.1 3.3-8.7 3.3-2.08 0-3.92-.36-5.52-1.08-1.6-.76-2.96-1.82-4.08-3.18-1.08-1.4-1.92-3.04-2.52-4.92-.56-1.92-.84-4.06-.84-6.42 0-2.32.28-4.44.84-6.36.6-1.92 1.44-3.56 2.52-4.92 1.12-1.4 2.48-2.46 4.08-3.18 1.6-.76 3.44-1.14 5.52-1.14 2.08 0 3.92.38 5.52 1.14 1.6.72 2.94 1.78 4.02 3.18 1.12 1.36 1.96 3 2.52 4.92.6 1.92.9 4.04.9 6.36 0 5.36-1.42 9.46-4.26 12.3zm-8.7-23.16c-4.36 0-6.54 3.62-6.54 10.86 0 7.24 2.18 10.86 6.54 10.86 4.4 0 6.6-3.62 6.6-10.86 0-7.24-2.2-10.86-6.6-10.86zm29.731-4.44c2.16 0 4.42.66 6.78 1.98v-15.6l.42-.36h2.34c1.24 0 2.1.3 2.58.9.48.6.72 1.62.72 3.06v31.68c0 2.8.56 4.7 1.68 5.7-.16.56-.46 1.16-.9 1.8-.44.64-.9 1.1-1.38 1.38-2.28-.44-3.86-1.68-4.74-3.72-2.36 2.72-5.24 4.08-8.64 4.08-3.4 0-5.98-1.36-7.74-4.08-1.76-2.76-2.64-6.58-2.64-11.46 0-2.44.3-4.6.9-6.48.64-1.92 1.48-3.54 2.52-4.86 1.04-1.32 2.26-2.32 3.66-3 1.4-.68 2.88-1.02 4.44-1.02zm.24 25.74c2.6 0 4.78-1.26 6.54-3.78V32.96c-2.24-1.44-4.18-2.16-5.82-2.16-1.8 0-3.28.9-4.44 2.7-1.16 1.8-1.74 4.46-1.74 7.98 0 3.48.52 6.04 1.56 7.68 1.04 1.64 2.34 2.46 3.9 2.46zm20.417-22.38c.4-1.48 1.16-2.58 2.28-3.3 2.76.6 4.58 2.38 5.46 5.34 1.6-3.56 4.22-5.34 7.86-5.34.96 0 2.02.12 3.18.36 0 2.32-.5 4.28-1.5 5.88-.36-.12-1.18-.22-2.46-.3-2.72 0-4.86 1.52-6.42 4.56V56c-.76.16-1.8.24-3.12.24-1.28 0-2.3-.08-3.06-.24V35.42c0-2.72-.74-4.78-2.22-6.18zm31.786 2.28V56c-.76.16-1.8.24-3.12.24-1.28 0-2.3-.08-3.06-.24V34.04c0-1.12-.2-1.92-.6-2.4-.4-.48-1.08-.72-2.04-.72h-.66c-.2-.88-.3-1.62-.3-2.22 0-.6.1-1.36.3-2.28 1.32-.16 2.58-.24 3.78-.24h.84c1.52 0 2.7.48 3.54 1.44.88.96 1.32 2.26 1.32 3.9zm-7.5-10.74c-.36-.72-.54-1.6-.54-2.64 0-1.64.3-2.6.9-2.88.6-.32 1.6-.5 3-.54 1.6.04 2.62.24 3.06.6.44.36.68 1.3.72 2.82-.04 1.44-.28 2.36-.72 2.76-.44.4-1.46.62-3.06.66-1.56 0-2.68-.26-3.36-.78zm34.409 7.92c.88-1.4 2.26-2.32 4.14-2.76.48.32.94.8 1.38 1.44.48.64.78 1.22.9 1.74-1.12 1.08-1.68 2.98-1.68 5.7v17.76c0 3.08-.26 5.68-.78 7.8-.48 2.12-1.24 3.82-2.28 5.1a8.523 8.523 0 0 1-3.96 2.82c-1.6.6-3.52.9-5.76.9-3.56 0-7.02-.66-10.38-1.98.04-1.92.58-3.48 1.62-4.68 2.52 1.24 5.24 1.86 8.16 1.86 2.84 0 4.78-.74 5.82-2.22 1.04-1.44 1.56-3.48 1.56-6.12V53.3c-2.36 2.16-5.14 3.24-8.34 3.24-3.16 0-5.64-1.38-7.44-4.14-1.76-2.76-2.64-6.56-2.64-11.4 0-2.44.3-4.6.9-6.48.6-1.92 1.44-3.54 2.52-4.86 1.08-1.32 2.3-2.32 3.66-3 1.4-.72 2.88-1.08 4.44-1.08 3.2 0 5.92 1.04 8.16 3.12zm-1.26 19.14V33.26c-2-1.8-3.96-2.7-5.88-2.7s-3.44.9-4.56 2.7c-1.12 1.8-1.68 4.46-1.68 7.98 0 3.48.5 6.04 1.5 7.68 1 1.64 2.3 2.46 3.9 2.46 2.48 0 4.72-1.18 6.72-3.54zm34.939 5.64c-2.2 2.2-5.1 3.3-8.7 3.3-2.08 0-3.92-.36-5.52-1.08-1.6-.76-2.96-1.82-4.08-3.18-1.08-1.4-1.92-3.04-2.52-4.92-.56-1.92-.84-4.06-.84-6.42 0-2.32.28-4.44.84-6.36.6-1.92 1.44-3.56 2.52-4.92 1.12-1.4 2.48-2.46 4.08-3.18 1.6-.76 3.44-1.14 5.52-1.14 2.08 0 3.92.38 5.52 1.14 1.6.72 2.94 1.78 4.02 3.18 1.12 1.36 1.96 3 2.52 4.92.6 1.92.9 4.04.9 6.36 0 5.36-1.42 9.46-4.26 12.3zm-8.7-23.16c-4.36 0-6.54 3.62-6.54 10.86 0 7.24 2.18 10.86 6.54 10.86 4.4 0 6.6-3.62 6.6-10.86 0-7.24-2.2-10.86-6.6-10.86zm47.056 26.28c-1.84 0-3.68-.42-5.52-1.26v7.98c0 2.08-.38 3.54-1.14 4.38-.76.84-2.1 1.26-4.02 1.26h-3.6l-.42-.42V26.06l.42-.42h2.46c2.28 0 3.98.98 5.1 2.94 2.28-2.28 5.06-3.42 8.34-3.42 1.68 0 3.16.38 4.44 1.14 1.28.72 2.36 1.76 3.24 3.12.92 1.36 1.6 3 2.04 4.92.48 1.92.72 4.08.72 6.48 0 2.4-.32 4.58-.96 6.54-.6 1.96-1.44 3.62-2.52 4.98-1.08 1.36-2.36 2.42-3.84 3.18-1.44.72-3.02 1.08-4.74 1.08zm-1.14-23.94c-1.68 0-3.14.8-4.38 2.4v13.2c1.52.92 2.82 1.38 3.9 1.38 2.72 0 4.08-3.02 4.08-9.06 0-5.28-1.2-7.92-3.6-7.92zm42.065 11.4h-15.66c.08 1.8.54 3.2 1.38 4.2.84 1 2.22 1.5 4.14 1.5.96 0 2.06-.14 3.3-.42 1.28-.28 2.74-.74 4.38-1.38 1.32 1.36 2.14 3.2 2.46 5.52-3.2 2.28-7.12 3.42-11.76 3.42-2.52 0-4.64-.4-6.36-1.2-1.68-.8-3.06-1.92-4.14-3.36-1.04-1.44-1.78-3.14-2.22-5.1-.44-1.96-.66-4.1-.66-6.42 0-2.24.26-4.3.78-6.18.56-1.92 1.38-3.58 2.46-4.98 1.12-1.4 2.52-2.5 4.2-3.3 1.72-.8 3.72-1.2 6-1.2 1.92 0 3.64.32 5.16.96 1.56.64 2.88 1.52 3.96 2.64s1.9 2.46 2.46 4.02c.6 1.56.9 3.26.9 5.1 0 2.44-.26 4.5-.78 6.18zm-15.72-6.48h7.92v-.66c0-1.48-.34-2.7-1.02-3.66-.64-.96-1.62-1.44-2.94-1.44-1.28 0-2.24.46-2.88 1.38-.6.88-.96 2.34-1.08 4.38zm19.804 16.38c.04-1.04.3-2.18.78-3.42.52-1.24 1.12-2.22 1.8-2.94 3.2 1.68 5.98 2.52 8.34 2.52 1.12 0 1.98-.18 2.58-.54.6-.4.9-.92.9-1.56 0-1.2-.92-2.1-2.76-2.7l-3.3-1.26c-5-1.84-7.5-4.84-7.5-9 0-3.04 1.04-5.44 3.12-7.2 2.12-1.8 4.96-2.7 8.52-2.7 1.76 0 3.7.26 5.82.78 2.12.48 3.86 1.06 5.22 1.74.08 1.12-.14 2.36-.66 3.72-.52 1.32-1.16 2.26-1.92 2.82-3.36-1.52-6.16-2.28-8.4-2.28-.8 0-1.42.18-1.86.54-.4.36-.6.82-.6 1.38 0 .96.76 1.72 2.28 2.28l3.72 1.32c5.32 1.88 7.98 5.1 7.98 9.66 0 3-1.1 5.38-3.3 7.14-2.2 1.76-5.34 2.64-9.42 2.64s-7.86-.98-11.34-2.94zm26.601 0c.04-1.04.3-2.18.78-3.42.52-1.24 1.12-2.22 1.8-2.94 3.2 1.68 5.98 2.52 8.34 2.52 1.12 0 1.98-.18 2.58-.54.6-.4.9-.92.9-1.56 0-1.2-.92-2.1-2.76-2.7l-3.3-1.26c-5-1.84-7.5-4.84-7.5-9 0-3.04 1.04-5.44 3.12-7.2 2.12-1.8 4.96-2.7 8.52-2.7 1.76 0 3.7.26 5.82.78 2.12.48 3.86 1.06 5.22 1.74.08 1.12-.14 2.36-.66 3.72-.52 1.32-1.16 2.26-1.92 2.82-3.36-1.52-6.16-2.28-8.4-2.28-.8 0-1.42.18-1.86.54-.4.36-.6.82-.6 1.38 0 .96.76 1.72 2.28 2.28l3.72 1.32c5.32 1.88 7.98 5.1 7.98 9.66 0 3-1.1 5.38-3.3 7.14-2.2 1.76-5.34 2.64-9.42 2.64s-7.86-.98-11.34-2.94zm50.602-25.26c2.88 2.88 4.32 7 4.32 12.36 0 2.4-.32 4.58-.96 6.54-.6 1.96-1.5 3.64-2.7 5.04-1.16 1.36-2.6 2.42-4.32 3.18-1.72.72-3.7 1.08-5.94 1.08s-4.22-.38-5.94-1.14c-1.68-.76-3.12-1.82-4.32-3.18-1.16-1.4-2.04-3.08-2.64-5.04-.6-1.96-.9-4.12-.9-6.48 0-2.4.3-4.56.9-6.48.6-1.96 1.48-3.64 2.64-5.04 1.16-1.4 2.6-2.48 4.32-3.24 1.72-.76 3.7-1.14 5.94-1.14 3.96 0 7.16 1.18 9.6 3.54zm-9.54 3.48c-.88 0-1.6.22-2.16.66-.52.4-.94.96-1.26 1.68-.32.72-.54 1.56-.66 2.52-.12.92-.18 1.92-.18 3 0 1.68.04 3.14.12 4.38.12 1.2.32 2.22.6 3.06.32.8.74 1.4 1.26 1.8.56.4 1.28.6 2.16.6 1.76 0 2.92-.76 3.48-2.28.56-1.56.84-3.76.84-6.6 0-2.88-.28-5.06-.84-6.54-.56-1.52-1.68-2.28-3.36-2.28zm44.728 19.5c-.2.84-.58 1.74-1.14 2.7-.56.96-1.14 1.66-1.74 2.1-2.8-.08-4.96-1.14-6.48-3.18-2.6 2.4-5.42 3.6-8.46 3.6-1.56 0-2.92-.26-4.08-.78-1.16-.48-2.14-1.14-2.94-1.98-.8-.84-1.4-1.8-1.8-2.88-.4-1.12-.6-2.28-.6-3.48 0-1.72.3-3.22.9-4.5.64-1.32 1.5-2.4 2.58-3.24 1.08-.88 2.34-1.54 3.78-1.98 1.44-.44 2.98-.66 4.62-.66.92 0 1.72.02 2.4.06.72 0 1.34.02 1.86.06v-1.14c0-2.52-1.3-3.78-3.9-3.78-1.68 0-4.62.64-8.82 1.92-1.2-1.4-1.96-3.58-2.28-6.54.96-.36 2.02-.7 3.18-1.02 1.2-.32 2.42-.6 3.66-.84 1.24-.24 2.46-.42 3.66-.54 1.2-.16 2.28-.24 3.24-.24 1.4 0 2.74.2 4.02.6 1.32.4 2.46 1.02 3.42 1.86 1 .8 1.78 1.86 2.34 3.18.6 1.28.9 2.82.9 4.62v12.18c0 1.84.56 3.14 1.68 3.9zm-18.12-4.5c0 1.88 1.08 2.82 3.24 2.82 1.12 0 2.38-.58 3.78-1.74v-4.8c-.8-.04-1.48-.06-2.04-.06-.52-.04-.92-.06-1.2-.06-2.52 0-3.78 1.28-3.78 3.84zM24.87 80.97L19.41 96h-1.89l-4.56-12.69L8.37 96H6.45L1.02 80.97h1.95l4.44 12.84 4.68-12.84h1.83l4.53 12.84 4.56-12.84h1.86zm4.332 7.29v.09c0 2.02.46 3.57 1.38 4.65.94 1.06 2.3 1.59 4.08 1.59 1.8 0 3.45-.62 4.95-1.86l.72 1.44c-.66.62-1.5 1.12-2.52 1.5-1.02.36-2.07.54-3.15.54-2.28 0-4.08-.69-5.4-2.07-1.32-1.38-1.98-3.28-1.98-5.7 0-1.54.29-2.9.87-4.08.6-1.2 1.43-2.12 2.49-2.76 1.06-.66 2.28-.99 3.66-.99 1.98 0 3.52.64 4.62 1.92 1.12 1.28 1.68 3.06 1.68 5.34v.39h-11.4zm5.1-6.15c-1.38 0-2.5.42-3.36 1.26-.86.82-1.4 1.98-1.62 3.48h9.54c-.12-1.54-.57-2.71-1.35-3.51-.78-.82-1.85-1.23-3.21-1.23zm17.249-1.5c1.32 0 2.49.32 3.51.96 1.02.64 1.8 1.54 2.34 2.7.56 1.16.84 2.52.84 4.08s-.28 2.94-.84 4.14c-.56 1.18-1.35 2.1-2.37 2.76-1 .64-2.16.96-3.48.96-1.24 0-2.31-.27-3.21-.81-.88-.54-1.54-1.32-1.98-2.34V96h-1.83V73.92h1.8v9.87c.44-1.04 1.11-1.83 2.01-2.37.9-.54 1.97-.81 3.21-.81zm-.21 13.98c1.56 0 2.78-.55 3.66-1.65.88-1.1 1.32-2.63 1.32-4.59 0-1.94-.44-3.45-1.32-4.53-.88-1.08-2.11-1.62-3.69-1.62s-2.8.54-3.66 1.62c-.86 1.08-1.29 2.61-1.29 4.59s.43 3.51 1.29 4.59c.86 1.06 2.09 1.59 3.69 1.59zm31.311-20.67V96h-1.83v-2.88c-.44 1-1.11 1.77-2.01 2.31-.88.52-1.94.78-3.18.78-1.32 0-2.49-.32-3.51-.96-1-.66-1.78-1.58-2.34-2.76-.56-1.2-.84-2.58-.84-4.14 0-1.56.27-2.92.81-4.08.56-1.18 1.34-2.08 2.34-2.7 1.02-.64 2.2-.96 3.54-.96 1.22 0 2.27.26 3.15.78.9.52 1.58 1.28 2.04 2.28v-9.75h1.83zm-6.78 20.67c1.58 0 2.8-.54 3.66-1.62.86-1.08 1.29-2.6 1.29-4.56 0-1.96-.43-3.48-1.29-4.56-.86-1.1-2.07-1.65-3.63-1.65-1.6 0-2.84.54-3.72 1.62-.88 1.08-1.32 2.59-1.32 4.53 0 1.96.44 3.49 1.32 4.59.88 1.1 2.11 1.65 3.69 1.65zm12.715-6.33v.09c0 2.02.46 3.57 1.38 4.65.94 1.06 2.3 1.59 4.08 1.59 1.8 0 3.45-.62 4.95-1.86l.72 1.44c-.66.62-1.5 1.12-2.52 1.5-1.02.36-2.07.54-3.15.54-2.28 0-4.08-.69-5.4-2.07-1.32-1.38-1.98-3.28-1.98-5.7 0-1.54.29-2.9.87-4.08.6-1.2 1.43-2.12 2.49-2.76 1.06-.66 2.28-.99 3.66-.99 1.98 0 3.52.64 4.62 1.92 1.12 1.28 1.68 3.06 1.68 5.34v.39h-11.4zm5.1-6.15c-1.38 0-2.5.42-3.36 1.26-.86.82-1.4 1.98-1.62 3.48h9.54c-.12-1.54-.57-2.71-1.35-3.51-.78-.82-1.85-1.23-3.21-1.23zm15.119 14.1c-2.44 0-4.37-.67-5.79-2.01l.66-1.41c.8.66 1.6 1.13 2.4 1.41.82.28 1.76.42 2.82.42 1.24 0 2.18-.21 2.82-.63.66-.44.99-1.07.99-1.89 0-.68-.22-1.21-.66-1.59-.42-.4-1.12-.72-2.1-.96l-2.55-.57c-1.2-.28-2.15-.78-2.85-1.5-.68-.72-1.02-1.56-1.02-2.52 0-1.32.5-2.37 1.5-3.15 1.02-.8 2.37-1.2 4.05-1.2 1.06 0 2.04.17 2.94.51.92.34 1.68.83 2.28 1.47l-.69 1.41c-1.38-1.2-2.89-1.8-4.53-1.8-1.16 0-2.06.23-2.7.69-.64.46-.96 1.1-.96 1.92 0 .68.2 1.23.6 1.65.42.42 1.06.73 1.92.93l2.58.63c2.7.6 4.05 1.93 4.05 3.99 0 1.26-.52 2.28-1.56 3.06-1.04.76-2.44 1.14-4.2 1.14zm9.934-15.24h1.8V96h-1.8V80.97zm2.16-6.21v2.34h-2.43v-2.34h2.43zm17.536 6.21v15.09c0 2.18-.54 3.83-1.62 4.95s-2.67 1.68-4.77 1.68c-2.24 0-4.19-.54-5.85-1.62l.36-1.59c.98.58 1.88.99 2.7 1.23.82.24 1.76.36 2.82.36 1.5 0 2.63-.41 3.39-1.23.78-.82 1.17-2.02 1.17-3.6v-3.87c-.46 1.02-1.14 1.81-2.04 2.37-.9.54-1.98.81-3.24.81-1.32 0-2.49-.31-3.51-.93-1.02-.64-1.82-1.52-2.4-2.64-.56-1.14-.84-2.44-.84-3.9 0-1.48.28-2.78.84-3.9.58-1.14 1.38-2.02 2.4-2.64 1.02-.62 2.19-.93 3.51-.93 1.26 0 2.33.26 3.21.78.9.52 1.58 1.28 2.04 2.28v-2.7h1.83zm-6.84 12.93c1.56 0 2.78-.52 3.66-1.56.9-1.04 1.35-2.46 1.35-4.26 0-1.82-.45-3.25-1.35-4.29-.88-1.06-2.1-1.59-3.66-1.59-1.58 0-2.82.53-3.72 1.59-.9 1.04-1.35 2.47-1.35 4.29 0 1.82.45 3.25 1.35 4.29.9 1.02 2.14 1.53 3.72 1.53zm18.802-13.29c3.62 0 5.43 1.94 5.43 5.82V96h-1.83v-9.45c0-1.5-.31-2.6-.93-3.3-.6-.7-1.55-1.05-2.85-1.05-1.5 0-2.71.46-3.63 1.38-.92.92-1.38 2.16-1.38 3.72V96h-1.8V85.14c0-1.56-.08-2.95-.24-4.17h1.74l.24 2.76c.46-1.02 1.15-1.79 2.07-2.31.92-.54 1.98-.81 3.18-.81zm11.314 7.65v.09c0 2.02.46 3.57 1.38 4.65.94 1.06 2.3 1.59 4.08 1.59 1.8 0 3.45-.62 4.95-1.86l.72 1.44c-.66.62-1.5 1.12-2.52 1.5-1.02.36-2.07.54-3.15.54-2.28 0-4.08-.69-5.4-2.07-1.32-1.38-1.98-3.28-1.98-5.7 0-1.54.29-2.9.87-4.08.6-1.2 1.43-2.12 2.49-2.76 1.06-.66 2.28-.99 3.66-.99 1.98 0 3.52.64 4.62 1.92 1.12 1.28 1.68 3.06 1.68 5.34v.39h-11.4zm5.1-6.15c-1.38 0-2.5.42-3.36 1.26-.86.82-1.4 1.98-1.62 3.48h9.54c-.12-1.54-.57-2.71-1.35-3.51-.78-.82-1.85-1.23-3.21-1.23zm16.709-1.5c.5 0 .94.04 1.32.12l-.09 1.65c-.38-.08-.84-.12-1.38-.12-1.52 0-2.66.49-3.42 1.47-.74.96-1.11 2.11-1.11 3.45V96h-1.8V85.14c0-1.56-.08-2.95-.24-4.17h1.74l.24 2.79c.38-1.02.99-1.8 1.83-2.34.86-.54 1.83-.81 2.91-.81z" fill="#fff"/></svg>